<?xml version="1.0" encoding="iso-8859-1"?>
<!-- Generator: Adobe Illustrator 19.2.0, SVG Export Plug-In . SVG Version: 6.00 Build 0)  -->
<svg version="1.1" id="Layer_1" xmlns="http://www.w3.org/2000/svg" xmlns:xlink="http://www.w3.org/1999/xlink" x="0px" y="0px"
	 viewBox="0 0 40 40" style="enable-background:new 0 0 40 40;" xml:space="preserve">
<rect x="38" y="3" style="fill:#7496C4;" width="1" height="33"/>
<rect x="32" y="35" style="fill:#7496C4;" width="7" height="1"/>
<rect x="32" y="19" style="fill:#7496C4;" width="7" height="1"/>
<rect x="32" y="3" style="fill:#C74343;" width="7" height="1"/>
<rect x="35" y="31" style="fill:#7496C4;" width="4" height="1"/>
<rect x="35" y="27" style="fill:#7496C4;" width="4" height="1"/>
<rect x="35" y="23" style="fill:#7496C4;" width="4" height="1"/>
<rect x="35" y="15" style="fill:#7496C4;" width="4" height="1"/>
<rect x="35" y="11" style="fill:#C74343;" width="4" height="1"/>
<rect x="38" y="3" style="fill:#C74343;" width="1" height="9"/>
<rect x="35" y="7" style="fill:#C74343;" width="4" height="1"/>
<g>
	<g>
		<polygon style="fill:#4E7AB5;" points="18,31 22,36 26,31 		"/>
	</g>
</g>
<g>
	<g>
		<polygon style="fill:#4E7AB5;" points="9,31 13,36 17,31 		"/>
	</g>
</g>
<g>
	<g>
		<polygon style="fill:#4E7AB5;" points="0,31 4,36 8,31 		"/>
	</g>
</g>
<g>
	<g>
		<path style="fill:none;stroke:#4E7AB5;stroke-width:2;stroke-miterlimit:10;" d="M29,3c0,6.86-0.479,8.43-4.2,15.4
			C22.044,23.563,22,26.129,22,31"/>
	</g>
</g>
<g>
	<g>
		<path style="fill:none;stroke:#4E7AB5;stroke-width:2;stroke-miterlimit:10;" d="M20,3c0,6.86-0.479,8.43-4.2,15.4
			C13.044,23.563,13,26.129,13,31"/>
	</g>
</g>
<g>
	<g>
		<path style="fill:none;stroke:#4E7AB5;stroke-width:2;stroke-miterlimit:10;" d="M11,3c0,6.86-0.479,8.43-4.2,15.4
			C4.044,23.563,4,26.129,4,31"/>
	</g>
</g>
</svg>
